<svg width="20" height="20" viewBox="0 0 20 20" fill="none" xmlns="http://www.w3.org/2000/svg">
<path d="M17.9627 15.5252C18.2501 13.0926 18.3418 10.6413 18.2371 8.19429C18.2348 8.13664 18.2446 8.07915 18.2658 8.02539C18.2869 7.97164 18.319 7.92279 18.3601 7.88189L19.3948 6.85724C19.4231 6.82908 19.459 6.8096 19.4981 6.80116C19.5373 6.79271 19.5781 6.79564 19.6157 6.80961C19.6532 6.82358 19.6859 6.84798 19.7097 6.87989C19.7336 6.9118 19.7477 6.94985 19.7502 6.98948C19.945 9.89605 19.871 12.8142 19.5294 15.7074C19.2812 17.813 17.5736 19.4634 15.457 19.6977C11.7823 20.1007 8.07403 20.1007 4.39941 19.6977C2.2838 19.4634 0.575117 17.813 0.326963 15.7074C-0.108988 12.0164 -0.108988 8.28758 0.326963 4.59653C0.575117 2.49098 2.28275 0.840494 4.39941 0.606197C7.18837 0.299927 9.99835 0.225734 12.7998 0.384396C12.8399 0.387247 12.8783 0.401417 12.9106 0.425228C12.9428 0.449039 12.9674 0.481494 12.9816 0.518748C12.9957 0.556002 12.9988 0.596496 12.9905 0.635432C12.9821 0.674369 12.9627 0.710118 12.9344 0.738445L11.8903 1.77143C11.8494 1.81178 11.8006 1.84341 11.7469 1.86436C11.6932 1.88532 11.6357 1.89515 11.578 1.89327C9.24025 1.81457 6.89983 1.90331 4.57501 2.1588C3.89568 2.23327 3.26154 2.53235 2.77501 3.00774C2.28849 3.48313 1.978 4.10707 1.89369 4.77876C1.47209 8.34873 1.47209 11.9552 1.89369 15.5252C1.978 16.1969 2.28849 16.8208 2.77501 17.2962C3.26154 17.7716 3.89568 18.0707 4.57501 18.1451C8.10278 18.5356 11.7536 18.5356 15.2824 18.1451C15.9617 18.0707 16.5959 17.7716 17.0824 17.2962C17.5689 16.8208 17.8784 16.1969 17.9627 15.5252Z" fill="#A2A2A2" style="fill:#A2A2A2;fill:color(display-p3 0.6333 0.6333 0.6333);fill-opacity:1;"/>
</svg>
