<svg width="19" height="10" viewBox="0 0 19 10" fill="none" xmlns="http://www.w3.org/2000/svg">
<path d="M6.5 9.28571C6.5 9.09627 6.57902 8.91459 6.71967 8.78064C6.86032 8.64668 7.05109 8.57143 7.25 8.57143H11.75C11.9489 8.57143 12.1397 8.64668 12.2803 8.78064C12.421 8.91459 12.5 9.09627 12.5 9.28571C12.5 9.47515 12.421 9.65684 12.2803 9.79079C12.1397 9.92475 11.9489 10 11.75 10H7.25C7.05109 10 6.86032 9.92475 6.71967 9.79079C6.57902 9.65684 6.5 9.47515 6.5 9.28571ZM3.5 5C3.5 4.81056 3.57902 4.62888 3.71967 4.49492C3.86032 4.36097 4.05109 4.28571 4.25 4.28571H14.75C14.9489 4.28571 15.1397 4.36097 15.2803 4.49492C15.421 4.62888 15.5 4.81056 15.5 5C15.5 5.18944 15.421 5.37112 15.2803 5.50508C15.1397 5.63903 14.9489 5.71429 14.75 5.71429H4.25C4.05109 5.71429 3.86032 5.63903 3.71967 5.50508C3.57902 5.37112 3.5 5.18944 3.5 5ZM0.5 0.714286C0.5 0.524845 0.579018 0.343164 0.71967 0.20921C0.860322 0.075255 1.05109 0 1.25 0H17.75C17.9489 0 18.1397 0.075255 18.2803 0.20921C18.421 0.343164 18.5 0.524845 18.5 0.714286C18.5 0.903726 18.421 1.08541 18.2803 1.21936C18.1397 1.35332 17.9489 1.42857 17.75 1.42857H1.25C1.05109 1.42857 0.860322 1.35332 0.71967 1.21936C0.579018 1.08541 0.5 0.903726 0.5 0.714286Z" fill="#909090" style="fill:#909090;fill:color(display-p3 0.5647 0.5647 0.5647);fill-opacity:1;"/>
</svg>
