<svg width="20" height="20" viewBox="0 0 20 20" fill="none" xmlns="http://www.w3.org/2000/svg">
<path d="M0 2C0 1.46957 0.197544 0.960859 0.549175 0.585786C0.900805 0.210714 1.37772 0 1.875 0L4.375 0C4.87228 0 5.34919 0.210714 5.70083 0.585786C6.05246 0.960859 6.25 1.46957 6.25 2V4.66667C6.25 5.1971 6.05246 5.70581 5.70083 6.08088C5.34919 6.45595 4.87228 6.66667 4.375 6.66667H1.875C1.37772 6.66667 0.900805 6.45595 0.549175 6.08088C0.197544 5.70581 0 5.1971 0 4.66667L0 2ZM1.875 1.33333C1.70924 1.33333 1.55027 1.40357 1.43306 1.5286C1.31585 1.65362 1.25 1.82319 1.25 2V4.66667C1.25 4.84348 1.31585 5.01305 1.43306 5.13807C1.55027 5.2631 1.70924 5.33333 1.875 5.33333H4.375C4.54076 5.33333 4.69973 5.2631 4.81694 5.13807C4.93415 5.01305 5 4.84348 5 4.66667V2C5 1.82319 4.93415 1.65362 4.81694 1.5286C4.69973 1.40357 4.54076 1.33333 4.375 1.33333H1.875ZM0 10.6667C0 9.95942 0.263392 9.28115 0.732233 8.78105C1.20107 8.28095 1.83696 8 2.5 8H17.5C18.163 8 18.7989 8.28095 19.2678 8.78105C19.7366 9.28115 20 9.95942 20 10.6667V17.3333C20 18.0406 19.7366 18.7189 19.2678 19.219C18.7989 19.719 18.163 20 17.5 20H2.5C1.83696 20 1.20107 19.719 0.732233 19.219C0.263392 18.7189 0 18.0406 0 17.3333V10.6667ZM1.25 14.6667V17.3333C1.25 17.687 1.3817 18.0261 1.61612 18.2761C1.85054 18.5262 2.16848 18.6667 2.5 18.6667H17.5C17.8315 18.6667 18.1495 18.5262 18.3839 18.2761C18.6183 18.0261 18.75 17.687 18.75 17.3333V14.6667H1.25ZM18.75 13.3333V10.6667C18.75 10.313 18.6183 9.97391 18.3839 9.72386C18.1495 9.47381 17.8315 9.33333 17.5 9.33333H2.5C2.16848 9.33333 1.85054 9.47381 1.61612 9.72386C1.3817 9.97391 1.25 10.313 1.25 10.6667V13.3333H18.75ZM2.5 11.3333C2.5 11.1565 2.56585 10.987 2.68306 10.8619C2.80027 10.7369 2.95924 10.6667 3.125 10.6667H14.375C14.5408 10.6667 14.6997 10.7369 14.8169 10.8619C14.9342 10.987 15 11.1565 15 11.3333C15 11.5101 14.9342 11.6797 14.8169 11.8047C14.6997 11.9298 14.5408 12 14.375 12H3.125C2.95924 12 2.80027 11.9298 2.68306 11.8047C2.56585 11.6797 2.5 11.5101 2.5 11.3333ZM2.5 16.6667C2.5 16.4899 2.56585 16.3203 2.68306 16.1953C2.80027 16.0702 2.95924 16 3.125 16H10.625C10.7908 16 10.9497 16.0702 11.0669 16.1953C11.1842 16.3203 11.25 16.4899 11.25 16.6667C11.25 16.8435 11.1842 17.013 11.0669 17.1381C10.9497 17.2631 10.7908 17.3333 10.625 17.3333H3.125C2.95924 17.3333 2.80027 17.2631 2.68306 17.1381C2.56585 17.013 2.5 16.8435 2.5 16.6667Z" fill="black" style="fill:black;fill-opacity:1;"/>
</svg>
