<svg width="20" height="20" viewBox="0 0 20 20" fill="none" xmlns="http://www.w3.org/2000/svg">
<path d="M10.0004 0C10.2277 0 10.4457 0.0903058 10.6065 0.251051C10.7672 0.411797 10.8576 0.629814 10.8576 0.857143C10.8576 1.08447 10.7672 1.30249 10.6065 1.46323C10.4457 1.62398 10.2277 1.71429 10.0004 1.71429C7.80279 1.71429 5.6952 2.58724 4.14127 4.14112C2.58734 5.69499 1.71435 7.80249 1.71435 10C1.71435 12.1975 2.58734 14.305 4.14127 15.8589C5.6952 17.4128 7.80279 18.2857 10.0004 18.2857C10.2277 18.2857 10.4457 18.376 10.6065 18.5368C10.7672 18.6975 10.8576 18.9155 10.8576 19.1429C10.8576 19.3702 10.7672 19.5882 10.6065 19.749C10.4457 19.9097 10.2277 20 10.0004 20C7.34811 20 4.80448 18.9464 2.92904 17.0711C1.05361 15.1957 0 12.6522 0 10C0 7.34784 1.05361 4.8043 2.92904 2.92893C4.80448 1.05357 7.34811 0 10.0004 0Z" fill="black" style="fill:black;fill-opacity:1;"/>
<path d="M15.1092 7.17707C14.9577 7.01459 14.8753 6.79968 14.8792 6.57762C14.8832 6.35556 14.9731 6.14369 15.1302 5.98665C15.2872 5.8296 15.4991 5.73965 15.7212 5.73573C15.9432 5.73181 16.1581 5.81424 16.3206 5.96564L19.7493 9.39422C19.9099 9.55493 20 9.77279 20 9.99993C20 10.2271 19.9099 10.4449 19.7493 10.6056L16.3206 14.0342C16.2422 14.1184 16.1475 14.186 16.0424 14.2328C15.9372 14.2797 15.8237 14.3049 15.7086 14.3069C15.5935 14.3089 15.4792 14.2878 15.3725 14.2446C15.2658 14.2015 15.1688 14.1374 15.0874 14.056C15.006 13.9746 14.9418 13.8776 14.8987 13.7709C14.8556 13.6642 14.8344 13.5498 14.8365 13.4348C14.8385 13.3197 14.8637 13.2062 14.9105 13.101C14.9574 12.9959 15.0249 12.9013 15.1092 12.8228L17.075 10.8571H7.7146C7.48726 10.8571 7.26923 10.7668 7.10848 10.606C6.94773 10.4453 6.85742 10.2273 6.85742 9.99993C6.85742 9.7726 6.94773 9.55458 7.10848 9.39384C7.26923 9.23309 7.48726 9.14279 7.7146 9.14279H17.075L15.1092 7.17707Z" fill="black" style="fill:black;fill-opacity:1;"/>
</svg>
